<?xml version="1.0" encoding="UTF-8"?><svg id="Layer_1" xmlns="http://www.w3.org/2000/svg" width="1024" height="768" viewBox="0 0 1024 768"><defs><style>.cls-1{fill:none;fill-rule:evenodd;stroke:#1e1e1e;stroke-miterlimit:10;stroke-width:10px;}</style></defs><path class="cls-1" d="M1068.02,60.38c-67.06,0-66.86-43.45-137-43.45s-67.34,43.45-137.88,43.45-61.01-43.45-137.88-43.45-60.6,43.45-137.88,43.45-64.34-43.45-137.88-43.45-62.75,43.45-137.88,43.45S179.86,16.93,103.73,16.93,38.24,60.38-34.15,60.38"/><path class="cls-1" d="M1068.02,113.57c-67.06,0-66.86-43.45-137-43.45s-67.34,43.45-137.88,43.45-61.01-43.45-137.88-43.45-60.6,43.45-137.88,43.45-64.34-43.45-137.88-43.45-62.75,43.45-137.88,43.45-61.75-43.45-137.88-43.45S38.24,113.57-34.15,113.57"/><path class="cls-1" d="M1068.02,166.77c-67.06,0-66.86-43.45-137-43.45s-67.34,43.45-137.88,43.45-61.01-43.45-137.88-43.45-60.6,43.45-137.88,43.45-64.34-43.45-137.88-43.45-62.75,43.45-137.88,43.45-61.75-43.45-137.88-43.45-65.49,43.45-137.88,43.45"/><path class="cls-1" d="M1068.02,219.96c-67.06,0-66.86-43.45-137-43.45s-67.34,43.45-137.88,43.45-61.01-43.45-137.88-43.45-60.6,43.45-137.88,43.45-64.34-43.45-137.88-43.45-62.75,43.45-137.88,43.45-61.75-43.45-137.88-43.45-65.49,43.45-137.88,43.45"/><path class="cls-1" d="M1068.02,273.15c-67.06,0-66.86-43.45-137-43.45s-67.34,43.45-137.88,43.45-61.01-43.45-137.88-43.45-60.6,43.45-137.88,43.45-64.34-43.45-137.88-43.45-62.75,43.45-137.88,43.45-61.75-43.45-137.88-43.45-65.49,43.45-137.88,43.45"/><path class="cls-1" d="M1068.02,326.34c-67.06,0-66.86-43.45-137-43.45s-67.34,43.45-137.88,43.45-61.01-43.45-137.88-43.45-60.6,43.45-137.88,43.45-64.34-43.45-137.88-43.45-62.75,43.45-137.88,43.45-61.75-43.45-137.88-43.45-65.49,43.45-137.88,43.45"/><path class="cls-1" d="M1068.02,379.53c-67.06,0-66.86-43.45-137-43.45s-67.34,43.45-137.88,43.45-61.01-43.45-137.88-43.45-60.6,43.45-137.88,43.45-64.34-43.45-137.88-43.45-62.75,43.45-137.88,43.45-61.75-43.45-137.88-43.45-65.49,43.45-137.88,43.45"/><path class="cls-1" d="M1068.02,432.73c-67.06,0-66.86-43.45-137-43.45s-67.34,43.45-137.88,43.45-61.01-43.45-137.88-43.45-60.6,43.45-137.88,43.45-64.34-43.45-137.88-43.45-62.75,43.45-137.88,43.45-61.75-43.45-137.88-43.45-65.49,43.45-137.88,43.45"/><path class="cls-1" d="M1068.02,485.92c-67.06,0-66.86-43.45-137-43.45s-67.34,43.45-137.88,43.45-61.01-43.45-137.88-43.45-60.6,43.45-137.88,43.45-64.34-43.45-137.88-43.45-62.75,43.45-137.88,43.45-61.75-43.45-137.88-43.45-65.49,43.45-137.88,43.45"/><path class="cls-1" d="M1068.02,539.11c-67.06,0-66.86-43.45-137-43.45s-67.34,43.45-137.88,43.45-61.01-43.45-137.88-43.45-60.6,43.45-137.88,43.45-64.34-43.45-137.88-43.45-62.75,43.45-137.88,43.45-61.75-43.45-137.88-43.45-65.49,43.45-137.88,43.45"/><path class="cls-1" d="M1068.02,592.3c-67.06,0-66.86-43.45-137-43.45s-67.34,43.45-137.88,43.45-61.01-43.45-137.88-43.45-60.6,43.45-137.88,43.45-64.34-43.45-137.88-43.45-62.75,43.45-137.88,43.45-61.75-43.45-137.88-43.45-65.49,43.45-137.88,43.45"/><path class="cls-1" d="M1068.02,645.49c-67.06,0-66.86-43.45-137-43.45s-67.34,43.45-137.88,43.45-61.01-43.45-137.88-43.45-60.6,43.45-137.88,43.45-64.34-43.45-137.88-43.45-62.75,43.45-137.88,43.45-61.75-43.45-137.88-43.45-65.49,43.45-137.88,43.45"/><path class="cls-1" d="M1068.02,698.69c-67.06,0-66.86-43.45-137-43.45s-67.34,43.45-137.88,43.45-61.01-43.45-137.88-43.45-60.6,43.45-137.88,43.45-64.34-43.45-137.88-43.45-62.75,43.45-137.88,43.45-61.75-43.45-137.88-43.45-65.49,43.45-137.88,43.45"/><path class="cls-1" d="M1068.02,751.88c-67.06,0-66.86-43.45-137-43.45s-67.34,43.45-137.88,43.45-61.01-43.45-137.88-43.45-60.6,43.45-137.88,43.45-64.34-43.45-137.88-43.45-62.75,43.45-137.88,43.45-61.75-43.45-137.88-43.45-65.49,43.45-137.88,43.45"/></svg>