<?xml version="1.0" encoding="UTF-8"?><svg id="Layer_1" xmlns="http://www.w3.org/2000/svg" width="1431.52" height="794.28" viewBox="0 0 1431.52 794.28"><defs><style>.cls-1{fill:none;fill-rule:evenodd;stroke:#1e1e1e;stroke-miterlimit:10;stroke-width:10px;}</style></defs><path class="cls-1" d="M1314.15,8.08c-79.87,22.63-91.48-19.24-175.02,4.43-83.54,23.67-68.36,64.53-152.39,88.34-84.02,23.81-84.51-21.21-176.07,4.73-91.57,25.94-60.33,62.25-152.39,88.34-92.05,26.08-88.48-20.09-176.07,4.73-87.6,24.82-62.89,62.98-152.39,88.34-89.49,25.36-85.39-20.96-176.07,4.73-90.68,25.69-66.16,63.9-152.39,88.34"/><path class="cls-1" d="M1328.65,59.26c-79.87,22.63-91.48-19.24-175.02,4.43-83.54,23.67-68.36,64.53-152.39,88.34-84.02,23.81-84.51-21.21-176.07,4.73-91.57,25.94-60.33,62.25-152.39,88.34-92.05,26.08-88.48-20.09-176.07,4.73-87.6,24.82-62.89,62.98-152.39,88.34-89.49,25.36-85.39-20.96-176.07,4.73-90.68,25.69-66.16,63.9-152.39,88.34"/><path class="cls-1" d="M1343.15,110.44c-79.87,22.63-91.48-19.24-175.02,4.43-83.54,23.67-68.36,64.53-152.39,88.34s-84.51-21.21-176.07,4.73c-91.57,25.94-60.33,62.25-152.39,88.34-92.05,26.08-88.48-20.09-176.07,4.73-87.6,24.82-62.89,62.98-152.39,88.34-89.49,25.36-85.39-20.96-176.07,4.73-90.68,25.69-66.16,63.9-152.39,88.34"/><path class="cls-1" d="M1357.66,161.62c-79.87,22.63-91.48-19.24-175.02,4.43-83.54,23.67-68.36,64.53-152.39,88.34-84.02,23.81-84.51-21.21-176.07,4.73-91.57,25.94-60.33,62.25-152.39,88.34-92.05,26.08-88.48-20.09-176.07,4.73-87.6,24.82-62.89,62.98-152.39,88.34-89.49,25.36-85.39-20.96-176.07,4.73-90.68,25.69-66.16,63.9-152.39,88.34"/><path class="cls-1" d="M1372.16,212.79c-79.87,22.63-91.48-19.24-175.02,4.43-83.54,23.67-68.36,64.53-152.39,88.34-84.02,23.81-84.51-21.21-176.07,4.73-91.57,25.94-60.33,62.25-152.39,88.34-92.05,26.08-88.48-20.09-176.07,4.73-87.6,24.82-62.89,62.98-152.39,88.34-89.49,25.36-85.39-20.96-176.07,4.73-90.68,25.69-66.16,63.9-152.39,88.34"/><path class="cls-1" d="M1386.66,263.97c-79.87,22.63-91.48-19.24-175.02,4.43-83.54,23.67-68.36,64.53-152.39,88.34-84.02,23.81-84.51-21.21-176.07,4.73-91.57,25.94-60.33,62.25-152.39,88.34-92.05,26.08-88.48-20.09-176.07,4.73-87.6,24.82-62.89,62.98-152.39,88.34-89.49,25.36-85.39-20.96-176.07,4.73-90.68,25.69-66.16,63.9-152.39,88.34"/><path class="cls-1" d="M1401.16,315.15c-79.87,22.63-91.48-19.24-175.02,4.43-83.54,23.67-68.36,64.53-152.39,88.34-84.02,23.81-84.51-21.21-176.07,4.73-91.57,25.94-60.33,62.25-152.39,88.34-92.05,26.08-88.48-20.09-176.07,4.73-87.6,24.82-62.89,62.98-152.39,88.34-89.49,25.36-85.39-20.96-176.07,4.73-90.68,25.69-66.16,63.9-152.39,88.34"/><path class="cls-1" d="M1415.66,366.33c-79.87,22.63-91.48-19.24-175.02,4.43-83.54,23.67-68.36,64.53-152.39,88.34-84.02,23.81-84.51-21.21-176.07,4.73-91.57,25.94-60.33,62.25-152.39,88.34-92.05,26.08-88.48-20.09-176.07,4.73-87.6,24.82-62.89,62.98-152.39,88.34-89.49,25.36-85.39-20.96-176.07,4.73-90.68,25.69-66.16,63.9-152.39,88.34"/><path class="cls-1" d="M1430.16,417.5c-79.87,22.63-91.48-19.24-175.02,4.43-83.54,23.67-68.36,64.53-152.39,88.34s-84.51-21.21-176.07,4.73c-91.57,25.94-60.33,62.25-152.39,88.34-92.05,26.08-88.48-20.09-176.07,4.73s-62.89,62.98-152.39,88.34c-89.49,25.36-85.39-20.96-176.07,4.73-90.68,25.69-66.16,63.9-152.39,88.34"/></svg>